<svg xmlns="http://www.w3.org/2000/svg" xmlns:xlink="http://www.w3.org/1999/xlink" width="152.094" height="34.677" viewBox="0 0 152.094 34.677">
  <defs>
    <clipPath id="clip-path">
      <rect id="Rectangle_2" data-name="Rectangle 2" width="152.094" height="34.677" fill="none"/>
    </clipPath>
  </defs>
  <g id="Group_1" data-name="Group 1" clip-path="url(#clip-path)">
    <path id="Path_1" data-name="Path 1" d="M339.295,42.1V30.182h2.937v1.145a4.84,4.84,0,0,1,3.517-1.259l-.194,3.1a3.827,3.827,0,0,0-2.629.673,2.961,2.961,0,0,0-.695,2.2V42.1Z" transform="translate(-193.655 -17.162)" fill="#59795f"/>
    <path id="Path_2" data-name="Path 2" d="M308.067,36.2a5.864,5.864,0,0,1,1.821-4.348,6.087,6.087,0,0,1,4.428-1.787,5.925,5.925,0,0,1,4.5,1.844,6.268,6.268,0,0,1,1.747,4.473q0,.285-.046.8h-9.458a3.459,3.459,0,0,0,1.269,1.8,3.708,3.708,0,0,0,2.225.643,4.1,4.1,0,0,0,1.827-.364,3.691,3.691,0,0,0,1.314-1.15l2.447,1.355a6.279,6.279,0,0,1-5.589,2.891,6.472,6.472,0,0,1-4.644-1.753,5.823,5.823,0,0,1-1.845-4.4m3.062-1.332h6.34a3.172,3.172,0,0,0-3.153-2.094,3.333,3.333,0,0,0-1.907.58,3.564,3.564,0,0,0-1.28,1.514" transform="translate(-175.831 -17.161)" fill="#59795f"/>
    <path id="Path_3" data-name="Path 3" d="M290.646,28.894V26.185h1.423V23.067h2.936v3.118h2.686v2.709h-2.686v4.314a2.021,2.021,0,0,0,.552,1.667,4.729,4.729,0,0,0,2.487.45l.182,2.845H297.6a6.739,6.739,0,0,1-4.12-1.07q-1.412-1.07-1.411-3.893V28.894Z" transform="translate(-165.888 -13.166)" fill="#59795f"/>
    <path id="Path_4" data-name="Path 4" d="M272.256,28.894V26.185h1.423V23.067h2.936v3.118H279.3v2.709h-2.686v4.314a2.023,2.023,0,0,0,.552,1.667,4.731,4.731,0,0,0,2.487.45l.182,2.845h-.626a6.738,6.738,0,0,1-4.12-1.07q-1.412-1.07-1.411-3.893V28.894Z" transform="translate(-155.392 -13.166)" fill="#59795f"/>
    <path id="Path_5" data-name="Path 5" d="M243.574,36.2a5.864,5.864,0,0,1,1.821-4.348,6.088,6.088,0,0,1,4.428-1.787,5.925,5.925,0,0,1,4.5,1.844,6.268,6.268,0,0,1,1.747,4.473q0,.285-.046.8h-9.458a3.458,3.458,0,0,0,1.269,1.8,3.708,3.708,0,0,0,2.225.643,4.1,4.1,0,0,0,1.827-.364,3.691,3.691,0,0,0,1.314-1.15l2.447,1.355a6.279,6.279,0,0,1-5.589,2.891,6.472,6.472,0,0,1-4.644-1.753,5.823,5.823,0,0,1-1.844-4.4m3.062-1.332h6.34a3.172,3.172,0,0,0-3.153-2.094,3.333,3.333,0,0,0-1.907.58,3.564,3.564,0,0,0-1.28,1.514" transform="translate(-139.021 -17.161)" fill="#59795f"/>
    <path id="Path_6" data-name="Path 6" d="M212.921,36.892V20.946h2.914v4.985a5.827,5.827,0,0,1,3.449-1.07,6.085,6.085,0,0,1,4.428,1.787,6.088,6.088,0,0,1-.011,8.7,6.059,6.059,0,0,1-4.417,1.809,5.937,5.937,0,0,1-3.449-1.058v.8Zm3.927-8.3a3.407,3.407,0,1,0,2.436-1.025,3.307,3.307,0,0,0-2.436,1.025" transform="translate(-121.526 -11.955)" fill="#59795f"/>
    <path id="Path_7" data-name="Path 7" d="M167.566,42.1V30.182h2.914v.956a4.28,4.28,0,0,1,2.982-1.07,4.149,4.149,0,0,1,3.676,1.684,5.124,5.124,0,0,1,3.961-1.684q4.666,0,4.667,5.782V42.1h-2.914V36.6a6.733,6.733,0,0,0-.467-2.936,1.93,1.93,0,0,0-1.89-.888,2.2,2.2,0,0,0-1.747.723,2.934,2.934,0,0,0-.632,2v6.6H175.2V36.6a6.734,6.734,0,0,0-.467-2.936,1.931,1.931,0,0,0-1.89-.888,2.181,2.181,0,0,0-1.741.723,2.952,2.952,0,0,0-.626,2v6.6Z" transform="translate(-95.639 -17.162)" fill="#ffa300"/>
    <path id="Path_8" data-name="Path 8" d="M150.734,42.1V30.182h2.937v1.145a4.84,4.84,0,0,1,3.517-1.259l-.194,3.1a3.827,3.827,0,0,0-2.629.673,2.961,2.961,0,0,0-.695,2.2V42.1Z" transform="translate(-86.032 -17.162)" fill="#ffa300"/>
    <path id="Path_9" data-name="Path 9" d="M118.361,36.2a5.861,5.861,0,0,1,1.821-4.348,6.085,6.085,0,0,1,4.428-1.787,5.828,5.828,0,0,1,3.449,1.07v-.956h2.914V42.1h-2.914v-.8a6.233,6.233,0,0,1-7.865-.751,5.894,5.894,0,0,1-1.832-4.348m3.825-2.4a3.381,3.381,0,1,0,2.424-1.025,3.288,3.288,0,0,0-2.424,1.025" transform="translate(-67.555 -17.161)" fill="#ffa300"/>
    <path id="Path_10" data-name="Path 10" d="M101.683,28.812V26.1h1.184v-.511q0-2.794,1.5-3.931a6.907,6.907,0,0,1,4.177-1.033q.285,0,.592.011l-.2,2.834a4.845,4.845,0,0,0-2.566.432,2.034,2.034,0,0,0-.564,1.685V26.1h2.686v2.709H105.8v7.9h-2.936v-7.9Z" transform="translate(-58.036 -11.774)" fill="#ffa300"/>
    <path id="Path_11" data-name="Path 11" d="M23.727,39.381a44.176,44.176,0,0,0-8.649-.832A39.145,39.145,0,0,0,0,41.327a16.475,16.475,0,0,0,1.976,5.714C7.063,42.956,15.041,40,23.727,39.381" transform="translate(0 -22.002)" fill="#bccdc5"/>
    <path id="Path_12" data-name="Path 12" d="M37.67,40.915a52.662,52.662,0,0,0-6.36-.382c-10.317,0-20.045,3.454-25.65,8.391A17.241,17.241,0,0,0,12.7,55.144c3.916-6.309,13.578-11.463,24.881-13.191.04-.344.073-.689.092-1.039" transform="translate(-3.23 -23.135)" fill="#8ba38f"/>
    <path id="Path_13" data-name="Path 13" d="M31.15,59.064A17.051,17.051,0,0,0,48.314,44.607c-10.876,1.9-20.072,7.007-23.768,13.2a18.956,18.956,0,0,0,2.783.815,19.554,19.554,0,0,0,3.821.438" transform="translate(-14.01 -25.46)" fill="#59795f"/>
    <path id="Path_14" data-name="Path 14" d="M47.919,26.136h-.013c-.1-.61-.1-.761-.208-1.255-.056-.26-.19-.755-.277-1.007-.058-.169-.3-.8-.382-.962a3.179,3.179,0,0,0-.676-.965,1.479,1.479,0,0,0-1.54-.332,3.939,3.939,0,0,0-1.467.825,21.29,21.29,0,0,0-1.6,1.495c-.42.443-.764.957-1.159,1.426a12.667,12.667,0,0,0-1.185,1.692,2.813,2.813,0,0,0-.447,1.778,1.3,1.3,0,0,1-.012.472l-.066.265c-.064-.268-.144-.728-.207-1l-.11-.006c-.319.969-.517,1.976-.909,2.925A16.767,16.767,0,0,1,36.3,34.366c.394-1.07.776-2.1,1.155-3.134a4.919,4.919,0,0,0,.295-1.263,2.6,2.6,0,0,0-.2.219c-.541.772-1.092,1.535-1.68,2.275-.613.77-1.256,1.509-1.942,2.215.212-.342.44-.67.683-.988.507-.666,1.05-1.307,1.526-1.994.614-.886,1.191-1.8,1.757-2.717a2.73,2.73,0,0,0,.357-1.236,17.378,17.378,0,0,1-13.17,6.014,18.58,18.58,0,0,1-8.206-1.838,15.629,15.629,0,0,1-3.347-2.277,15.527,15.527,0,0,0,3.743,2.239,18.939,18.939,0,0,0,7.2,1.367A17.385,17.385,0,0,0,38.22,26.52a18.378,18.378,0,0,0-1.485-4.878A30.538,30.538,0,0,0,34.309,17.5a9.1,9.1,0,0,0-.615-.778l.274.215c.133.116.4.358.52.487.27.3.4.47.667.774a15.023,15.023,0,0,1,1.809,2.651,13.6,13.6,0,0,1,1.154,2.608c.1.377.229,1.066.268,1.144a13.3,13.3,0,0,0,0-2.051,23.418,23.418,0,0,0-1.575-6.641,1.286,1.286,0,0,1-.095-1.04A2.1,2.1,0,0,1,37.8,13.263c.465.033.7.227.726.661a1.611,1.611,0,0,1-1.621,1.806c.036.107.064.2.1.3.278.689.575,1.371.834,2.066a18.061,18.061,0,0,1,.928,3.81,18.542,18.542,0,0,1,.164,3.628,17.263,17.263,0,0,0,2.151-14.7c-.379.01-.884-.013-1.192-.036a2.073,2.073,0,0,1-1.183-.46.946.946,0,0,1-.389-.921c.115-.376.709-.493,1.043-.446a5.521,5.521,0,0,1,1.268.583q-.236-.593-.513-1.163a.774.774,0,0,1-.063.251c-.195.419-1.653.114-2.094-.3-.19-.181-.438-.8-.035-1.057a.992.992,0,0,1,.434-.173,3.014,3.014,0,0,1,.458.034,2.7,2.7,0,0,1,.8.306q-.321-.567-.684-1.107a.792.792,0,0,1-.565.628,2.566,2.566,0,0,1-1.356-.17.826.826,0,0,1-.4-.262A.474.474,0,0,1,36.7,5.8a1.5,1.5,0,0,1,1.04-.335c.194,0,.39.018.606.032-.161-.211-.325-.419-.495-.622-.081-.1-.175-.2-.277-.308a.544.544,0,0,1-.331.611,2.094,2.094,0,0,1-1.719.163.448.448,0,0,1-.234-.752,1.5,1.5,0,0,1,.506-.426,1.433,1.433,0,0,1,1.441.065,13.994,13.994,0,0,0-1.968-1.587,7.95,7.95,0,0,1,1.479,1.022A2.471,2.471,0,0,1,36.232,2.4a1.337,1.337,0,0,1,.021-.51.583.583,0,0,1,.2-.313.5.5,0,0,1,.307-.1.836.836,0,0,1,.54.285,1.85,1.85,0,0,1,.537,1.623.571.571,0,0,1-.4.55.639.639,0,0,1-.421-.031A12.688,12.688,0,0,1,38,4.856c.143.158.282.321.419.484a3.333,3.333,0,0,1-.216-1.218,1.089,1.089,0,0,1,.448-.985.579.579,0,0,1,.428-.04c.33.1.412.37.549.627a1.526,1.526,0,0,1-.14,1.721c-.189.233-.478.2-.7.341l.009.022q.517.661.971,1.371c-.021-.052-.039-.1-.05-.14a1.766,1.766,0,0,1,.32-1.552.7.7,0,0,1,1.228-.067,1.014,1.014,0,0,1,.222.8,4.258,4.258,0,0,1-.235.814c-.19.513-.483.907-1.042.874A17.122,17.122,0,0,1,41,9.459l0,0a2.588,2.588,0,0,1-.092-1.018,1.6,1.6,0,0,1,.636-1.015.494.494,0,0,1,.748.048,1.379,1.379,0,0,1,.223.471,2,2,0,0,1-.3,1.625.894.894,0,0,1-.944.53q.167.424.312.859A2.565,2.565,0,0,1,42.349,9.9a.6.6,0,0,1,1.034.373,1.965,1.965,0,0,1-.94,2.157,1,1,0,0,1-.42.118,17.265,17.265,0,0,1-1.225,11.3c-.007.034-.007.045,0,.029a22.537,22.537,0,0,1,2.208-2.33q.379-.379.769-.749a4.934,4.934,0,0,1,1.274-.881,1.417,1.417,0,0,1,1.733.513,4.93,4.93,0,0,1,.679,1.5,12.758,12.758,0,0,1,.455,3.3,7.726,7.726,0,0,1,0,.915M34.7,2.489a.531.531,0,0,0,.9-.358,1.679,1.679,0,0,0-1.1-1.706.613.613,0,0,0-.6.159.692.692,0,0,0-.057.583A2.558,2.558,0,0,0,34.7,2.489m-2.32-.663A.531.531,0,0,0,33.04,1.7a.644.644,0,0,0,.055-.639,1.629,1.629,0,0,0-.587-.742A2.682,2.682,0,0,0,32.086.1a2.392,2.392,0,0,0-.387-.1.445.445,0,0,0-.513.617,2.063,2.063,0,0,0,1.192,1.2m3.415,1.351A1.067,1.067,0,0,0,34.572,2.9a1.272,1.272,0,0,0-.9.832.433.433,0,0,0,.064.432.773.773,0,0,0,.727.163,2.381,2.381,0,0,0,1.092-.473.6.6,0,0,0,.241-.676m-3.745-.391c-.061.129-.106.208-.137.291-.138.384.12.733.514.638a2.379,2.379,0,0,0,.835-.394,1.871,1.871,0,0,0,.5-.618c.154-.286.009-.525-.3-.61a1.321,1.321,0,0,0-1.407.692m-3.109-1.4a1.679,1.679,0,0,0,1.3.385.446.446,0,0,0,.3-.254.616.616,0,0,0-.2-.7,1.729,1.729,0,0,0-1.216-.5.851.851,0,0,0-.4.1.407.407,0,0,0-.188.33.858.858,0,0,0,.413.64m1.077,1.689a.471.471,0,0,0,.686.46,1.552,1.552,0,0,0,.948-1.2c.007-.211,0-.352-.158-.455a.609.609,0,0,0-.653.006,1.449,1.449,0,0,0-.823,1.188m-1.8.706a.278.278,0,0,0,.276.17.855.855,0,0,0,.695-.476,1.206,1.206,0,0,0,.23-1.207.383.383,0,0,0-.3-.191.948.948,0,0,0-.822.6,1.087,1.087,0,0,0-.079,1.105m-1.565-1.5a1.649,1.649,0,0,0,1.034.171.661.661,0,0,0,.338-.209c.212-.318.144-.486-.242-.726a1.413,1.413,0,0,0-1.132-.273,1.128,1.128,0,0,0-.361.152.331.331,0,0,0-.082.533,1.444,1.444,0,0,0,.445.353m-2.094,1.3a1.573,1.573,0,0,0,1.089-.055c.33-.155.375-.4.115-.658a1.2,1.2,0,0,0-1.7.018.249.249,0,0,0-.053.287.729.729,0,0,0,.548.408m2.875-.165c-.033-.4-.2-.487-.423-.525a.458.458,0,0,0-.362.122,1.243,1.243,0,0,0-.357.721,1.842,1.842,0,0,0-.024.479c.075.474.463.6.726.426a1.279,1.279,0,0,0,.44-1.223m-2.151.628c-.426,0-.639.522-.649.831-.011.352.109.7.3.733.39.059.633-.4.678-.583.13-.525.14-.982-.328-.982m-2.133,1.6a1.388,1.388,0,0,0,.917-.585.758.758,0,0,0,.091-.634c-.141-.246-.424-.2-.656-.067a1.428,1.428,0,0,0-.585.551.757.757,0,0,0-.105.511.312.312,0,0,0,.338.224m13.083,8.373a.841.841,0,0,0,.739-.493,1.8,1.8,0,0,0,.324-1.223.729.729,0,0,0-.5-.668.525.525,0,0,0-.373.064,1.921,1.921,0,0,0-.477,2.163.318.318,0,0,0,.292.157m-1.393-3.707a.716.716,0,0,0-.367.534,2.754,2.754,0,0,0,.056,1.275.542.542,0,0,0,.447.438c.252.032.4-.124.534-.326a1.464,1.464,0,0,0,.052-1.643.625.625,0,0,0-.721-.279m-.686,4.255a.45.45,0,0,0-.168.478,2.074,2.074,0,0,0,2.306-.005.517.517,0,0,0-.309-.806,1.739,1.739,0,0,0-1.828.333m-.241-3.433a1.524,1.524,0,0,0-.507-1.675.52.52,0,0,0-.547-.06c-.2.093-.213.26-.218.448a1.993,1.993,0,0,0,.45,1.438.473.473,0,0,0,.822-.152m-.281,3.038a3,3,0,0,0,1.494-.344.667.667,0,0,0,.226-.2c.215-.3.173-.458-.277-.708a1.349,1.349,0,0,0-1.258.219,1.641,1.641,0,0,0-.489.51c-.191.3-.055.511.3.525M31.863,10.8c.148-.053.225-.4.219-.465-.069-.673-.391-1.2-1.051-1.248-.072-.005-.249.008-.3.091a.917.917,0,0,0,.131,1.057,2.91,2.91,0,0,0,.442.5c.21.185.294.161.561.065M33.2,13.156c.773-.271,1.125-.556,1.067-.89-.068-.387-.26-.452-.631-.432-.539.028-1.488.736-1.285,1.2.053.124.3.31.849.117m-1.415-.475a2.373,2.373,0,0,0,.895-.909c.1-.225.1-.258.019-.451a.34.34,0,0,0-.323-.166A1.213,1.213,0,0,0,31.3,12.668c.156.187.34.115.483.013m-1.87-1.9a.253.253,0,0,0,.144-.209,1.033,1.033,0,0,0-.785-1.2c-.117-.037-.42-.073-.5.052a.543.543,0,0,0-.012.717,3.619,3.619,0,0,0,.622.556.488.488,0,0,0,.536.084m.383,1.728a.3.3,0,0,0,.178-.092,1.975,1.975,0,0,0,.637-1.109c.036-.188.017-.355-.137-.428a.559.559,0,0,0-.417.015,1.21,1.21,0,0,0-.507,1.469.224.224,0,0,0,.246.146m-1.272-1.5a1.016,1.016,0,0,0-.342,1.431.313.313,0,0,0,.333.153c.36-.129.415-.428.478-.761.079-.417.031-.623-.186-.793a.3.3,0,0,0-.282-.03m-.822.064a.579.579,0,0,0-.01-.412.931.931,0,0,0-.829-.653c-.209-.021-.508.006-.559.167a.415.415,0,0,0,.063.376,1.485,1.485,0,0,0,.937.639c.149.03.333.032.4-.116m-.719.4a.392.392,0,0,0-.309.294,1.341,1.341,0,0,0,.082,1.111.318.318,0,0,0,.488-.033,1.139,1.139,0,0,0,.043-1.213.3.3,0,0,0-.3-.16m-1.723.641a.456.456,0,0,0,.5.211.694.694,0,0,0,.6-.567.307.307,0,0,0-.095-.287.6.6,0,0,0-.92.147.426.426,0,0,0-.083.5" transform="translate(-7.718 0)" fill="#ffa300"/>
  </g>
</svg>
